<svg  viewBox="0 0 16 10" fill="none" xmlns="http://www.w3.org/2000/svg">
<path d="M8.07955 3H7.02273C6.96023 2.69602 6.85085 2.42898 6.6946 2.19886C6.54119 1.96875 6.35369 1.77557 6.1321 1.61932C5.91335 1.46023 5.67045 1.34091 5.40341 1.26136C5.13636 1.18182 4.85795 1.14205 4.56818 1.14205C4.03977 1.14205 3.56108 1.27557 3.1321 1.54261C2.70597 1.80966 2.36648 2.20312 2.11364 2.72301C1.86364 3.2429 1.73864 3.88068 1.73864 4.63636C1.73864 5.39205 1.86364 6.02983 2.11364 6.54972C2.36648 7.0696 2.70597 7.46307 3.1321 7.73011C3.56108 7.99716 4.03977 8.13068 4.56818 8.13068C4.85795 8.13068 5.13636 8.09091 5.40341 8.01136C5.67045 7.93182 5.91335 7.81392 6.1321 7.65767C6.35369 7.49858 6.54119 7.30398 6.6946 7.07386C6.85085 6.84091 6.96023 6.57386 7.02273 6.27273H8.07955C8 6.71875 7.85511 7.1179 7.64489 7.47017C7.43466 7.82244 7.1733 8.12216 6.8608 8.36932C6.5483 8.61364 6.19744 8.79972 5.80824 8.92756C5.42188 9.0554 5.00852 9.11932 4.56818 9.11932C3.82386 9.11932 3.16193 8.9375 2.58239 8.57386C2.00284 8.21023 1.54688 7.69318 1.21449 7.02273C0.882102 6.35227 0.715909 5.55682 0.715909 4.63636C0.715909 3.71591 0.882102 2.92045 1.21449 2.25C1.54688 1.57955 2.00284 1.0625 2.58239 0.698864C3.16193 0.335227 3.82386 0.153409 4.56818 0.153409C5.00852 0.153409 5.42188 0.217329 5.80824 0.34517C6.19744 0.473011 6.5483 0.660511 6.8608 0.90767C7.1733 1.15199 7.43466 1.45028 7.64489 1.80256C7.85511 2.15199 8 2.55114 8.07955 3ZM9.78729 9V0.272727H12.7362C13.4208 0.272727 13.9805 0.396307 14.4151 0.643466C14.8526 0.887784 15.1765 1.21875 15.3867 1.63636C15.5969 2.05398 15.7021 2.51989 15.7021 3.03409C15.7021 3.5483 15.5969 4.01562 15.3867 4.43608C15.1793 4.85653 14.8583 5.19176 14.4237 5.44176C13.989 5.68892 13.4322 5.8125 12.7532 5.8125H10.6396V4.875H12.7191C13.1879 4.875 13.5643 4.79403 13.8484 4.6321C14.1325 4.47017 14.3384 4.25142 14.4663 3.97585C14.5969 3.69744 14.6623 3.38352 14.6623 3.03409C14.6623 2.68466 14.5969 2.37216 14.4663 2.09659C14.3384 1.82102 14.131 1.60511 13.8441 1.44886C13.5572 1.28977 13.1765 1.21023 12.7021 1.21023H10.8441V9H9.78729Z" fill="#374151"/>
</svg>
