<svg viewBox="0 0 15 9" fill="none" xmlns="http://www.w3.org/2000/svg">
<path d="M0.0568182 9V0.272727H1.11364V4.15909H5.76705V0.272727H6.82386V9H5.76705V5.09659H1.11364V9H0.0568182ZM8.93963 9V0.272727H11.8885C12.5732 0.272727 13.1328 0.396307 13.5675 0.643466C14.005 0.887784 14.3288 1.21875 14.5391 1.63636C14.7493 2.05398 14.8544 2.51989 14.8544 3.03409C14.8544 3.5483 14.7493 4.01562 14.5391 4.43608C14.3317 4.85653 14.0107 5.19176 13.576 5.44176C13.1413 5.68892 12.5845 5.8125 11.9055 5.8125H9.7919V4.875H11.8714C12.3402 4.875 12.7166 4.79403 13.0007 4.6321C13.2848 4.47017 13.4908 4.25142 13.6186 3.97585C13.7493 3.69744 13.8146 3.38352 13.8146 3.03409C13.8146 2.68466 13.7493 2.37216 13.6186 2.09659C13.4908 1.82102 13.2834 1.60511 12.9964 1.44886C12.7095 1.28977 12.3288 1.21023 11.8544 1.21023H9.99645V9H8.93963Z" fill="#374151"/>
</svg>

